<!DOCTYPE svg PUBLIC "-//W3C//DTD SVG 1.1//EN" "http://www.w3.org/Graphics/SVG/1.1/DTD/svg11.dtd">
<!-- Uploaded to: SVG Repo, www.svgrepo.com, Transformed by: SVG Repo Mixer Tools -->
<svg height="800px" width="800px" version="1.1" id="Layer_1" xmlns="http://www.w3.org/2000/svg" xmlns:xlink="http://www.w3.org/1999/xlink" viewBox="0 0 511.988 511.988" xml:space="preserve" fill="#000000">
<g id="SVGRepo_bgCarrier" stroke-width="0"/>
<g id="SVGRepo_tracerCarrier" stroke-linecap="round" stroke-linejoin="round"/>
<g id="SVGRepo_iconCarrier"> <polygon style="fill:#FC6E51;" points="436.568,146.423 397.35,137.376 384.85,124.876 376.225,86.08 451.662,10.66 511.988,71.003 "/> <path style="fill:#A85D5D;" d="M70.733,462.611c-2.734,0-5.468-1.062-7.546-3.125c-4.172-4.188-4.172-10.938,0-15.094 L490.145,17.425c4.172-4.172,10.922-4.172,15.093,0c4.156,4.156,4.156,10.906,0,15.078L78.264,459.486 C76.186,461.549,73.452,462.611,70.733,462.611z"/> <polygon style="fill:#FC6E51;" points="135.763,86.08 126.716,125.298 114.216,137.813 75.42,146.423 0,71.003 60.343,10.66 "/> <path style="fill:#A85D5D;" d="M441.271,462.611c-2.734,0-5.469-1.062-7.547-3.125L6.765,32.503c-4.172-4.172-4.172-10.922,0-15.078 c4.156-4.172,10.921-4.172,15.078,0l426.975,426.967c4.156,4.156,4.156,10.906,0,15.094 C446.724,461.549,444.006,462.611,441.271,462.611z"/> <g> <path style="fill:#CCD1D9;" d="M77.03,399.986c-2.484-2.469-6.016-3.562-9.469-2.938c-3.437,0.625-6.359,2.906-7.796,6.094 l-37.484,83.125c-1.828,4.031-0.953,8.779,2.188,11.936c2.031,2.031,4.765,3.125,7.531,3.125c1.484,0,2.984-0.312,4.391-0.938 l83.124-37.498c3.188-1.438,5.468-4.344,6.109-7.781c0.625-3.469-0.469-7-2.953-9.469L77.03,399.986z"/> <path style="fill:#CCD1D9;" d="M489.489,485.767l-37.249-82.625c-1.438-3.188-4.359-5.469-7.797-6.094 c-3.453-0.625-6.984,0.469-9.469,2.938l-45.64,45.656c-2.484,2.469-3.578,6-2.953,9.438c0.625,3.469,2.906,6.375,6.109,7.812 l83.124,37.498c1.406,0.625,2.891,0.938,4.375,0.938c0.062,0,0.125,0,0.203,0c5.796-0.094,10.483-4.844,10.483-10.686 C490.677,488.892,490.255,487.236,489.489,485.767z"/> </g> <path style="fill:#F6BB42;" d="M426.647,183.188l-0.047-0.875c-0.219-9-7.562-16.329-16.578-16.485 c-26.969-1.031-94.592-8.078-142.7-50.967c-0.359-0.328-0.734-0.625-1.141-0.891c-0.406-0.359-0.859-0.672-1.328-0.969 c-2.609-1.609-5.609-2.5-8.703-2.547c-0.109,0-0.218,0-0.328,0c-4.109,0.047-8.047,1.609-11.094,4.375 c-48.17,42.905-115.701,49.952-142.637,50.999c-9.109,0.156-16.531,7.547-16.688,16.61l-0.062,1.469 c-0.015,0.266-0.015,0.531,0,0.797c4.797,131.691,86.357,233.814,161.09,285.439c0.031,0.031,0.062,0.062,0.094,0.094 c2.812,1.875,6.078,2.875,9.468,2.875c3.406,0,6.688-1,9.469-2.906l0.984-0.656c0.031-0.031,0.078-0.062,0.109-0.094 c41.077-28.594,78.826-68.656,106.278-112.748c15.828-25.406,28.391-52.219,37.344-79.686c9.844-30.226,15.391-61.459,16.469-92.849 C426.662,183.844,426.662,183.516,426.647,183.188z"/> <path style="fill:#FFCE54;" d="M255.994,402.455c-5.89,0-10.656-4.75-10.656-10.656V191.75c0-5.89,4.766-10.672,10.656-10.672 c5.891,0,10.672,4.782,10.672,10.672v200.049C266.666,397.705,261.885,402.455,255.994,402.455z"/> </g>
</svg>